<svg width="27" height="27" viewBox="0 0 27 27" fill="none" xmlns="http://www.w3.org/2000/svg">
<path d="M7.29289 26.7071C7.68342 27.0976 8.31658 27.0976 8.70711 26.7071L15.0711 20.3431C15.4616 19.9526 15.4616 19.3195 15.0711 18.9289C14.6805 18.5384 14.0474 18.5384 13.6569 18.9289L8 24.5858L2.34314 18.9289C1.95262 18.5384 1.31946 18.5384 0.928931 18.9289C0.538407 19.3195 0.538407 19.9526 0.928931 20.3431L7.29289 26.7071ZM7 1L7 26L9 26L9 1L7 1Z" fill="black"/>
<path d="M18.9036 12H16.5968L20.1117 1.81818H22.8858L26.3958 12H24.089L21.5385 4.14489H21.459L18.9036 12ZM18.7594 7.99787H24.2083V9.67827H18.7594V7.99787ZM17.6066 25V23.7223L22.6876 16.593H17.5967V14.8182H25.3921V16.0959L20.3062 23.2251H25.4021V25H17.6066Z" fill="black"/>
</svg>
