<svg width="30" height="26" viewBox="0 0 30 26" fill="none" xmlns="http://www.w3.org/2000/svg">
<path d="M7.29289 25.7071C7.68342 26.0976 8.31658 26.0976 8.70711 25.7071L15.0711 19.3431C15.4616 18.9526 15.4616 18.3195 15.0711 17.9289C14.6805 17.5384 14.0474 17.5384 13.6569 17.9289L8 23.5858L2.34314 17.9289C1.95262 17.5384 1.31946 17.5384 0.928931 17.9289C0.538407 18.3195 0.538407 18.9526 0.928931 19.3431L7.29289 25.7071ZM7 -4.37114e-08L7 25L9 25L9 4.37114e-08L7 -4.37114e-08Z" fill="black"/>
<path d="M20.6066 12V10.7223L25.6876 3.59304H20.5967V1.81818H28.3921V3.09588L23.3062 10.2251H28.4021V12H20.6066ZM21.9036 25H19.5968L23.1117 14.8182H25.8858L29.3958 25H27.089L24.5385 17.1449H24.459L21.9036 25ZM21.7594 20.9979H27.2083V22.6783H21.7594V20.9979Z" fill="black"/>
</svg>
