<svg width="18" height="19" viewBox="0 0 18 19" fill="none" xmlns="http://www.w3.org/2000/svg">
<path d="M11.1053 18L11.1053 7.8" stroke="black" stroke-linecap="round"/>
<path d="M17.3748 1.33099C17.5556 1.12234 17.5345 0.804998 17.3275 0.622198C17.1205 0.439397 16.8061 0.460357 16.6252 0.669014L17.3748 1.33099ZM11.48 8.13099L17.3748 1.33099L16.6252 0.669014L10.7305 7.46901L11.48 8.13099Z" fill="black"/>
<path d="M1 1L17 1" stroke="black" stroke-linecap="round"/>
<path d="M7.73684 15.45L7.73684 7.8" stroke="black" stroke-linecap="round"/>
<path d="M1.3519 0.644804C1.15755 0.448633 0.84245 0.448633 0.648101 0.644804C0.453752 0.840975 0.453752 1.15903 0.648101 1.3552L1.3519 0.644804ZM8.08874 7.4448L1.3519 0.644804L0.648101 1.3552L7.38494 8.1552L8.08874 7.4448Z" fill="black"/>
<path d="M7.73684 15.45L11.1053 18" stroke="black" stroke-linecap="round"/>
</svg>
