<svg width="23" height="21" viewBox="0 0 23 21" fill="none" xmlns="http://www.w3.org/2000/svg">
<path fill-rule="evenodd" clip-rule="evenodd" d="M16.9519 0.500001L1.04801 0.500001C0.905159 0.48611 0.757499 0.534376 0.6481 0.644801L0.648028 0.644873C0.556617 0.735477 0.5 0.861127 0.5 1C0.5 1.13894 0.556667 1.26464 0.64815 1.35525L7.23684 8.00571L7.23684 15.45C7.23684 15.6154 7.31715 15.762 7.44089 15.853L10.7982 18.3947C10.8021 18.3977 10.8061 18.4007 10.8101 18.4036C11.0293 18.567 11.3377 18.5228 11.5021 18.3042C11.5668 18.2199 11.6053 18.1144 11.6053 18L11.6053 7.98652L17.3743 1.33148C17.4525 1.24325 17.5 1.12717 17.5 1C17.5 0.848789 17.4329 0.713255 17.3268 0.62157C17.2194 0.527104 17.0833 0.487326 16.9519 0.500001ZM10.6053 16.9944L10.6053 7.8C10.6053 7.67289 10.6527 7.55686 10.7308 7.46864L15.9049 1.5H2.19916L8.08867 7.44473C8.18017 7.53535 8.23684 7.66106 8.23684 7.8L8.23684 15.2014L10.6053 16.9944Z" fill="black" fill-opacity="0.42"/>
<path fill-rule="evenodd" clip-rule="evenodd" d="M17.9996 15.9996L19.9992 17.9992L20.7064 17.2921L18.7067 15.2925L20.9992 13L20.2921 12.2929L17.9996 14.5854L15.7071 12.2929L15 13L17.2925 15.2925L15.2921 17.2929L15.9992 18L17.9996 15.9996Z" fill="black" fill-opacity="0.42"/>
</svg>
