<svg width="20" height="21" viewBox="0 0 20 21" fill="none" xmlns="http://www.w3.org/2000/svg">
<path fill-rule="evenodd" clip-rule="evenodd" d="M16.75 5C18.2688 5 19.5 3.88071 19.5 2.5C19.5 1.11929 18.2688 0 16.75 0C15.2312 0 14 1.11929 14 2.5C14 3.88071 15.2312 5 16.75 5ZM0.631566 3.33802C0.428142 3.15133 0.428143 2.84867 0.631568 2.66197C0.722964 2.56241 0.854193 2.5 0.999999 2.5H12C12.2761 2.5 12.5 2.72386 12.5 3C12.5 3.27614 12.2761 3.5 12 3.5H2.2817L8.71552 9.40376C8.83412 9.49519 8.91053 9.63867 8.91053 9.8L8.91053 17.1892L11.6158 19.051L11.6158 9.8C11.6158 9.65088 11.6811 9.517 11.7846 9.42539L14.608 6.46451C14.7986 6.26467 15.1276 6.24281 15.3429 6.4157C15.5583 6.58858 15.5783 6.89074 15.3878 7.09059L12.6158 9.99755L12.6158 19.8594C12.6585 19.9989 12.6315 20.1561 12.528 20.283C12.4379 20.4141 12.2869 20.5 12.1158 20.5C11.9957 20.5 11.8854 20.4576 11.7992 20.387L8.16279 17.8844C8.1385 17.8705 8.11548 17.8547 8.09396 17.837C7.92058 17.7176 7.8546 17.5147 7.91053 17.3303L7.91053 10.0173L0.695011 3.39624L0.631566 3.33802Z" fill="black"/>
</svg>
